<svg xmlns:xlink="http://www.w3.org/1999/xlink" aria-hidden="true" width="70" height="14" viewBox="0 0 70 14" fill="none" xmlns="http://www.w3.org/2000/svg"><defs><symbol id="icon-rating-star" viewBox="0 0 24 24"><path d="M12 17.27L18.18 21l-1.64-7.03L22 9.24l-7.19-.61L12 2 9.19 8.63 2 9.24l5.46 4.73L5.82 21 12 17.27z"></path></symbol><symbol id="icon-rating-star" viewBox="0 0 24 24"><path d="M12 17.27L18.18 21l-1.64-7.03L22 9.24l-7.19-.61L12 2 9.19 8.63 2 9.24l5.46 4.73L5.82 21 12 17.27z"></path></symbol><symbol id="icon-rating-star" viewBox="0 0 24 24"><path d="M12 17.27L18.18 21l-1.64-7.03L22 9.24l-7.19-.61L12 2 9.19 8.63 2 9.24l5.46 4.73L5.82 21 12 17.27z"></path></symbol><symbol id="icon-rating-star" viewBox="0 0 24 24"><path d="M12 17.27L18.18 21l-1.64-7.03L22 9.24l-7.19-.61L12 2 9.19 8.63 2 9.24l5.46 4.73L5.82 21 12 17.27z"></path></symbol><symbol id="icon-rating-star" viewBox="0 0 24 24"><path d="M12 17.27L18.18 21l-1.64-7.03L22 9.24l-7.19-.61L12 2 9.19 8.63 2 9.24l5.46 4.73L5.82 21 12 17.27z"></path></symbol><symbol id="icon-rating-star" viewBox="0 0 24 24"><path d="M12 17.27L18.18 21l-1.64-7.03L22 9.24l-7.19-.61L12 2 9.19 8.63 2 9.24l5.46 4.73L5.82 21 12 17.27z"></path></symbol><symbol id="icon-rating-star" viewBox="0 0 24 24"><path d="M12 17.27L18.18 21l-1.64-7.03L22 9.24l-7.19-.61L12 2 9.19 8.63 2 9.24l5.46 4.73L5.82 21 12 17.27z"></path></symbol><symbol id="icon-rating-star" viewBox="0 0 24 24"><path d="M12 17.27L18.18 21l-1.64-7.03L22 9.24l-7.19-.61L12 2 9.19 8.63 2 9.24l5.46 4.73L5.82 21 12 17.27z"></path></symbol><symbol id="icon-rating-star" viewBox="0 0 24 24"><path d="M12 17.27L18.18 21l-1.64-7.03L22 9.24l-7.19-.61L12 2 9.19 8.63 2 9.24l5.46 4.73L5.82 21 12 17.27z"></path></symbol><symbol id="icon-rating-star" viewBox="0 0 24 24"><path d="M12 17.27L18.18 21l-1.64-7.03L22 9.24l-7.19-.61L12 2 9.19 8.63 2 9.24l5.46 4.73L5.82 21 12 17.27z"></path></symbol></defs><mask id="u26-star-rating-mask--249" data-purpose="star-rating-mask" fill="none"><rect x="0" y="0" width="60%" height="100%" fill="#FFFFFF"></rect></mask><g class="star-rating-module--star-filled--FgjdR" mask="url(#u26-star-rating-mask--249)" data-purpose="star-filled" fill="#B4690E"><use xlink:href="#icon-rating-star" width="14" height="14" x="0" fill="#B4690E"></use><use xlink:href="#icon-rating-star" width="14" height="14" x="14" fill="#B4690E"></use><use xlink:href="#icon-rating-star" width="14" height="14" x="28" fill="#B4690E"></use><use xlink:href="#icon-rating-star" width="14" height="14" x="42" fill="#B4690E"></use><use xlink:href="#icon-rating-star" width="14" height="14" x="56" fill="#B4690E"></use></g><g fill="#000000" class="star-rating-module--star-bordered--A4SZK" stroke-width="2px" data-purpose="star-bordered" stroke="#B4690E" fill-opacity="0"><use xlink:href="#icon-rating-star" width="12" height="12" x="1" y="1" stroke="#B4690E" stroke-width="2px" fill-opacity="0"></use><use xlink:href="#icon-rating-star" width="12" height="12" x="15" y="1" stroke="#B4690E" stroke-width="2px" fill-opacity="0"></use><use xlink:href="#icon-rating-star" width="12" height="12" x="29" y="1" stroke="#B4690E" stroke-width="2px" fill-opacity="0"></use><use xlink:href="#icon-rating-star" width="12" height="12" x="43" y="1" stroke="#B4690E" stroke-width="2px" fill-opacity="0"></use><use xlink:href="#icon-rating-star" width="12" height="12" x="57" y="1" stroke="#B4690E" stroke-width="2px" fill-opacity="0"></use></g></svg>